<svg xmlns="http://www.w3.org/2000/svg" width="30" height="30" viewBox="0 0 30 30">
  <g id="XMLID_11_" transform="translate(-55.1)">
    <path id="XMLID_13_" d="M70.1,30h0a15,15,0,0,1-15-15h0a15,15,0,0,1,15-15h0a15,15,0,0,1,15,15h0A15,15,0,0,1,70.1,30Z"/>
    <path id="XMLID_12_" d="M70.415,22.786h3.071V15.092h2.142l.226-2.574H73.48V11.052c0-.61.119-.849.71-.849h1.665V7.53H73.725c-2.288,0-3.317,1.008-3.317,2.932v2.056h-1.6v2.607h1.6v7.661Z" transform="translate(-1.903 0.405)" fill="#d9d9d9"/>
  </g>
</svg>
