<svg xmlns="http://www.w3.org/2000/svg" width="30" height="30" viewBox="0 0 30 30">
  <g id="XMLID_1_" transform="translate(-110.84)">
    <path id="XMLID_10_" d="M125.84,30h0a15,15,0,0,1-15-15h0a15,15,0,0,1,15-15h0a15,15,0,0,1,15,15h0A15,15,0,0,1,125.84,30Z"/>
    <g id="XMLID_2_" transform="translate(117.619 6.779)">
      <path id="XMLID_7_" d="M127.661,10.082c2.2,0,2.459.008,3.326.047a4.7,4.7,0,0,1,1.529.284,2.619,2.619,0,0,1,.946.615,2.52,2.52,0,0,1,.615.946,4.7,4.7,0,0,1,.284,1.529c.039.867.047,1.127.047,3.326s-.008,2.459-.047,3.326a4.7,4.7,0,0,1-.284,1.529,2.718,2.718,0,0,1-1.561,1.561,4.7,4.7,0,0,1-1.529.284c-.867.039-1.127.047-3.326.047s-2.459-.008-3.326-.047a4.7,4.7,0,0,1-1.529-.284,2.718,2.718,0,0,1-1.561-1.561,4.7,4.7,0,0,1-.284-1.529c-.039-.867-.047-1.127-.047-3.326s.008-2.459.047-3.326a4.7,4.7,0,0,1,.284-1.529,2.619,2.619,0,0,1,.615-.946,2.52,2.52,0,0,1,.946-.615,4.7,4.7,0,0,1,1.529-.284c.867-.039,1.127-.047,3.326-.047m0-1.482c-2.231,0-2.514.008-3.389.047a5.944,5.944,0,0,0-1.994.386,4.038,4.038,0,0,0-1.458.946,3.937,3.937,0,0,0-.946,1.458,6.147,6.147,0,0,0-.386,1.994c-.039.875-.047,1.159-.047,3.389s.008,2.514.047,3.389a5.944,5.944,0,0,0,.386,1.994,4.038,4.038,0,0,0,.946,1.458,3.937,3.937,0,0,0,1.458.946,6.147,6.147,0,0,0,1.994.386c.875.039,1.159.047,3.389.047s2.514-.008,3.389-.047a5.944,5.944,0,0,0,1.994-.386,4.038,4.038,0,0,0,1.458-.946,3.937,3.937,0,0,0,.946-1.458,6.147,6.147,0,0,0,.386-1.994c.039-.875.047-1.159.047-3.389s-.008-2.514-.047-3.389a5.944,5.944,0,0,0-.386-1.994,4.038,4.038,0,0,0-.946-1.458,3.937,3.937,0,0,0-1.458-.946,6.147,6.147,0,0,0-1.994-.386c-.875-.039-1.159-.047-3.389-.047" transform="translate(-119.44 -8.6)" fill="#d9d9d9"/>
      <path id="XMLID_4_" d="M128.735,13.67a4.225,4.225,0,1,0,4.225,4.225,4.225,4.225,0,0,0-4.225-4.225m0,6.968a2.743,2.743,0,1,1,2.743-2.743,2.745,2.745,0,0,1-2.743,2.743" transform="translate(-120.514 -9.674)" fill="#d9d9d9"/>
      <path id="XMLID_3_" d="M136.161,13.2a.985.985,0,1,1-.985-.985.986.986,0,0,1,.985.985" transform="translate(-122.564 -9.364)" fill="#d9d9d9"/>
    </g>
  </g>
</svg>
