<svg xmlns="http://www.w3.org/2000/svg" viewBox="107.30000305175781 216.5 1130.89990234375 261.9000244140625" enable-background="new"><path d="M109.4 263.5c-1-3.1-2.1-7-2.1-10.1 0-15.1 12.6-26.3 27.7-26.3 12.6 0 22.8 8.1 26.3 19.3L210 396.6l49-148.8c4.2-12.6 13.7-21.4 27.3-21.4h4.2c13.6 0 23.1 8.4 27.3 21.4l49 148.8 48.7-150.2c3.5-10.5 12.6-19.3 25.9-19.3 14.7 0 26.6 11.2 26.6 25.9 0 3.2-1 7.4-2.1 10.5L397.1 456c-4.9 13.7-15.1 22-28 22h-5.6c-13 0-22.8-8-27.7-22l-48.3-140.4L239.3 456c-4.9 14-14.7 22-27.7 22H206c-13 0-23.1-8.4-28-22l-68.6-192.5zm467.2 214.9c-56.4 0-98-39.6-98-97v-.7c0-53.6 38.2-97.7 92.8-97.7 62.7 0 90.3 51.5 90.3 90.3 0 15.4-10.9 25.6-24.9 25.6H531.5c5.3 24.2 22.1 36.8 45.9 36.8 14.7 0 27-4.5 37.8-12.6 3.9-2.8 7.4-4.2 13-4.2 11.9 0 20.7 9.1 20.7 21 0 7-3.2 12.2-7 15.8-16.6 13.9-38 22.7-65.3 22.7zm34.3-112.7c-3.2-23.8-17.2-39.9-39.6-39.9-22.1 0-36.4 15.8-40.6 39.9h80.2zm280 84c0 14.7-11.9 26.6-26.6 26.6s-26.6-11.9-26.6-26.6v-2.5c-13 17.5-30.8 30.5-58.5 30.5-43.8 0-85.4-34.3-85.4-97v-.7c0-62.7 41-97 85.4-97 28.4 0 45.9 13 58.5 28v-67.9c0-14.7 11.9-26.6 26.6-26.6s26.6 11.9 26.6 26.6v206.6zM747.1 380v.7c0 31.1 21 51.8 45.9 51.8s45.5-20.7 45.5-51.8v-.7c0-31.2-20.7-51.8-45.5-51.8s-45.9 20.3-45.9 51.8zm190.7-138.2c0-15.4 13-24.9 29.8-24.9s29.8 9.5 29.8 24.9v.7c0 15.4-13 25.2-29.8 25.2s-29.8-9.8-29.8-25.2v-.7zm3.2 69.3c0-14.7 11.9-26.6 26.6-26.6s26.6 11.9 26.6 26.6v138.6c0 14.7-11.9 26.6-26.6 26.6S941 464.4 941 449.7V311.1zm94.1 70.3v-.7c0-53.9 43.4-97.7 101.9-97.7 58.1 0 101.2 43.1 101.2 97v.7c0 53.9-43.4 97.7-101.9 97.7-58.1 0-101.2-43.1-101.2-97zm150.5 0v-.7c0-27.7-20-51.8-49.4-51.8-30.5 0-48.7 23.5-48.7 51.1v.7c0 27.6 20 51.8 49.4 51.8 30.5 0 48.7-23.4 48.7-51.1z" fill="#fff"></path></svg>